<svg fill="none" xmlns="http://www.w3.org/2000/svg" viewBox="0 0 88 88"><path d="M55.8 0C67 0 72.5 0 76.7 2.2q5.7 3 8.6 8.6c2.2 4.2 2.2 9.8 2.2 20.9v24.1c0 11.1 0 16.7-2.2 20.9q-3 5.7-8.6 8.6c-4.2 2.2-9.8 2.2-20.9 2.2H31.7c-11.1 0-16.7 0-20.9-2.2q-5.6-3-8.6-8.6C0 72.5 0 66.9 0 55.8V31.7C0 20.6 0 15 2.2 10.8q3-5.6 8.6-8.6C15 0 20.6 0 31.7 0zm5.9 34c-5.5.1-11.6 3-11.5 9.4q0 4.4 3.6 7Q56.2 52 59 53c1.2.4 4.4 1.3 4.4 3.2s-2.6 2.1-4 2.1q-4.6 0-8.8-2.4-.4-.2-.4.3v6.5q0 .5.4.7a20 20 0 0 0 8.6 1.7c5.7 0 12.3-2.7 12.1-9.5.1-5.5-4.9-8.2-9.3-9.7-1.3-.5-4.1-1.4-4.2-3.2 0-3.2 6.2-2 7.8-1.5q1.8.3 3.5 1.2c.2.2.7 0 .6-.3V36q.1-.6-.4-.8a19 19 0 0 0-7.6-1.2m-31.3-9-11.3.2q-.3 0-.4.4v38.5q0 .5.5.5h7q.4 0 .5-.5V52C33 52 40 52 44 46.3q2.2-3 2.2-8 0-2.4-.8-4.8c-2.3-6.4-9-8.5-15-8.5m-3.7 7.4a17 17 0 0 1 8.3.7c2.2.9 3.4 3.1 3.4 5.5 0 2.7-1.5 5-4.2 5.8q-3.7 1-7.5.6z" fill="#001B3B"/></svg>