<svg fill="none" xmlns="http://www.w3.org/2000/svg" viewBox="0 0 88 88"><path d="M55.8 0C67 0 72.5 0 76.7 2.2q5.7 3 8.6 8.6c2.2 4.2 2.2 9.8 2.2 20.9v24.1c0 11.1 0 16.7-2.2 20.9q-3 5.7-8.6 8.6c-4.2 2.2-9.8 2.2-20.9 2.2H31.7c-11.1 0-16.7 0-20.9-2.2q-5.6-3-8.6-8.6C0 72.5 0 66.9 0 55.8V31.7C0 20.6 0 15 2.2 10.8q3-5.6 8.6-8.6C15 0 20.6 0 31.7 0zm-25 24.9q-.4 0-.4.4a13 13 0 0 1-.6 3.7L18.1 63.7q-.2.6.4.6h6.9q.5 0 .7-.5l2.7-8.8h13.6l3 8.9q0 .4.6.4h7.6q.6 0 .4-.6L40.6 25.2q0-.3-.4-.3zm27.5 9.5q-.5 0-.5.5v28.8q0 .6.6.6h7.1q.5 0 .5-.6V35q0-.5-.5-.5zm-22.7-2.6q2.2 7.9 4.6 15.6H31zm26.4-10a4.4 4.4 0 0 0-4.3 2.9l-.3 1.8a5 5 0 0 0 1.3 3.4 4 4 0 0 0 3.2 1.4 4.4 4.4 0 0 0 4.3-3q.5-.8.3-1.8a5 5 0 0 0-1.2-3.3q-1.2-1.3-3.3-1.3" fill="#001B3B"/></svg>