<svg fill="none" xmlns="http://www.w3.org/2000/svg" viewBox="0 0 100 100"><g clip-path="url(#a)"><path d="m43.5 0-2 3.5L66 45.9 92.5 0zM97 0 61.3 61.9H100v-59A3 3 0 0 0 97 0M39.3 7.4 24 33.8h30.5zm6.5 30.2h-.1q-2.5.1-3.7 2.2l-4.5 7.8a4 4 0 0 0 0 4.3l4.5 8q1.3 1.9 3.7 2h8.6q2.4-.1 3.7-2.1l4.5-8c.8-1.2.8-2.9 0-4.1v-.1L58 39.8a4 4 0 0 0-3.7-2.2zm-24 0L0 75.4v22a3 3 0 0 0 2.8 2.7l36-62.3zm12.2 16L7.2 100h53.5zm11.5 12.2L65.2 100H97a3 3 0 0 0 3-3V65.8z" fill="#001B3B"/></g><defs><clipPath id="a"><path fill="#fff" d="M0 0h100v100H0z"/></clipPath></defs></svg>