<svg fill="none" xmlns="http://www.w3.org/2000/svg" viewBox="0 0 100 100"><path fill-rule="evenodd" clip-rule="evenodd" d="M18.4 58.9q-1.6 4-1.8 8.2.3 2.6 1.8 4.9 2.7 3.1 6.5 5.2l16 10.7a23 23 0 0 0 6.6 3.6q2.3.6 4.7 0a23 23 0 0 0 6.6-3.6L75 77.2q3.8-2 6.6-5.3 1.5-2.1 1.7-4.8 0-4.4-1.8-8.3L67.3 14.2q-.5-2.2-1.7-4a5 5 0 0 0-2.1-1.6Q61.2 8 59 8.2H40.6q-2.2-.2-4.3.4Q35 9 34 10.2q-1.2 1.8-1.7 4zm41.4-41.3q1 1.6 1.4 3.5l12.2 40q-7-3.7-14.6-5L51 29.3a1 1 0 0 0-2 0l-7.8 26.8q-7.6 1.3-14.6 5l12.2-40q.4-1.8 1.4-3.4.8-1 1.8-1.4 1.9-.4 3.7-.3h8.7q2-.1 3.7.3 1 .5 1.8 1.4m-9.4 48.2q5.8.3 10.6-2.9a9 9 0 0 1-.6 6.8q-1.8 3-4.9 4.7c-2 1.3-3.9 2.5-3.9 5.6q0 1.5.7 2.8a8 8 0 0 1-4.8-7.2v-.2c0-2.1 0-4.7-3-4.7a3 3 0 0 0-3 2l-.2 1.2q-3.1-3.6-3.1-8.3 0-2 .5-3.9c1.3 2.4 6 4.1 11.7 4.1" fill="#001B3B"/></svg>