<svg fill="none" xmlns="http://www.w3.org/2000/svg" viewBox="0 0 70 100"><path d="M50.813 0C61.129 0 69.52 8.391 69.52 18.708c0 6.536-3.368 12.3-8.46 15.648 5.092 3.346 8.46 9.108 8.46 15.644 0 10.317-8.39 18.708-18.707 18.708h-.409a18.64 18.64 0 0 1-12.575-4.867v4.867h-.004v12.38c0 10.429-8.53 18.912-19.013 18.912C8.443 100 0 91.609 0 81.292c0-6.538 3.37-12.302 8.464-15.648C3.373 62.297.004 56.535.004 50s3.369-12.297 8.46-15.644C3.373 31.01.004 25.248.004 18.713.004 8.396 8.396 0 18.713 0zm-32.1 68.708a12.6 12.6 0 0 0-12.58 12.58c0 6.937 5.688 12.578 12.683 12.578 7.105 0 12.888-5.733 12.888-12.783V68.708zm0-31.287c-6.938 0-12.58 5.646-12.58 12.579s5.647 12.58 12.58 12.58H31.7V50.32q-.003-.16-.004-.321 0-.162.004-.324V37.42zm31.695 0C43.471 37.42 37.83 43.067 37.83 50s5.646 12.579 12.58 12.58h.407c6.938 0 12.58-5.647 12.58-12.58s-5.65-12.58-12.583-12.58zM37.83 31.292h12.984c6.937 0 12.578-5.646 12.579-12.58 0-6.932-5.646-12.578-12.58-12.578H37.83zM18.713 6.129c-6.938 0-12.579 5.646-12.58 12.579s5.642 12.584 12.58 12.584h12.983V6.129z" fill="#001B3B"/></svg>