<svg fill="none" xmlns="http://www.w3.org/2000/svg" viewBox="0 0 100 100"><g clip-path="url(#a)"><mask id="b" style="mask-type:luminance" maskUnits="userSpaceOnUse" x="0" y="0" width="100" height="100"><path d="M100 0H0v100h100z" fill="#fff"/></mask><g mask="url(#b)" fill="#001B3B"><path d="M21.2 0h4.5v4.5h4.1V0h4.5v13.5h-4.5V9h-4.1v4.5h-4.5zm19 4.5h-4V0h12.5v4.5h-4v9h-4.5zM50.7 0h4.7l2.9 4.7L61.2 0h4.7v13.5h-4.5V6.8l-3.1 4.8h-.1l-3.1-4.8v6.7h-4.4zm17.4 0h4.5v9H79v4.5H68z"/><path fill-rule="evenodd" clip-rule="evenodd" d="m21 92-8.5-72.3h75L79 92l-29 8zm17.3-39.6-.8-9.1h33.9l.8-8.9H27.8l2.4 26.9h30.7l-1 11.5-10 2.6-9.8-2.6-.6-7.1h-9l1.3 14 18.2 5 18.2-5 2.2-25 .2-2.3z"/></g></g><defs><clipPath id="a"><path fill="#fff" d="M0 0h100v100H0z"/></clipPath></defs></svg>