<svg fill="none" xmlns="http://www.w3.org/2000/svg" viewBox="0 0 100 100"><path d="M58.9 49.9a8.93 8.93 0 1 1-17.86 0 8.93 8.93 0 0 1 17.86 0" fill="#001B3B"/><path d="M49.97 70.35a101 101 0 0 1-32.4-4.47l.7.19c-5-1.61-9.33-4-13.1-7.05l.07.06a12.6 12.6 0 0 1-5.22-9.14v-.04c0-5.9 6.47-11.69 17.33-15.46a101 101 0 0 1 32.68-4.81h-.08l1.44-.02a102 102 0 0 1 31.47 4.96l-.73-.2a41 41 0 0 1 12.72 6.71l-.1-.07a12.1 12.1 0 0 1 5.14 8.85v.04c0 6.14-7.23 12.34-18.9 16.2a100 100 0 0 1-31.12 4.24zm0-36.45h-1.33a100 100 0 0 0-30.59 4.77l.7-.2C8.78 41.96 4.3 46.73 4.3 49.91c0 3.3 4.81 8.52 15.38 12.12a95 95 0 0 0 30.42 4.04h-.12a98 98 0 0 0 30.39-4.21l-.7.18c10.97-3.64 16-8.85 16-12.15a8.3 8.3 0 0 0-3.58-5.6l-.02-.03a37 37 0 0 0-11-5.83l-.26-.07a96 96 0 0 0-30.9-4.46z" fill="#001B3B"/><path d="M29.71 94.4h-.2a9.3 9.3 0 0 1-4.6-1.21l.05.02c-5.1-2.96-6.89-11.45-4.75-22.74A102 102 0 0 1 32.6 39.36l-.26.45a103 103 0 0 1 20.1-25.45l.07-.06a41 41 0 0 1 11.8-7.51l.28-.1a12 12 0 0 1 10.33.01l-.08-.03c5.32 3.06 7.08 12.44 4.59 24.47A103 103 0 0 1 67.35 60.6l.26-.45A102 102 0 0 1 48.1 85.4l-.06.05a40 40 0 0 1-12.3 7.71l-.27.1c-1.7.67-3.68 1.08-5.74 1.13zm4.47-53.51 1.85 1.06a98 98 0 0 0-11.5 28.67l-.13.67c-1.98 10.4-.07 16.65 2.66 18.24q1.09.58 2.44.6h.22c3.53 0 9.1-2.25 15.53-7.87a98 98 0 0 0 18.42-23.72l.25-.5a97 97 0 0 0 11.2-27.06l.14-.67c2.33-11.33.32-18.26-2.54-19.92a8.3 8.3 0 0 0-6.72.34l.05-.02a37 37 0 0 0-10.76 6.83l.02-.02A99 99 0 0 0 36.3 41.48l-.26.49z" fill="#001B3B"/><path d="M70.22 94.44c-4.83 0-10.96-2.91-17.37-8.43a103 103 0 0 1-20.24-25.3l-.26-.51a100 100 0 0 1-11.9-29.54l-.14-.69a41 41 0 0 1-.54-14.47l-.03.21c.31-3.7 2.25-6.88 5.08-8.88l.04-.03c5.3-3.07 14.31.1 23.48 8.26A103 103 0 0 1 67.3 39.28l.27.5a99 99 0 0 1 12 28.89l.14.69a41 41 0 0 1 .47 15.02l.03-.23a12.7 12.7 0 0 1-5.29 9.1l-.04.02a9 9 0 0 1-4.47 1.17zM36.04 58.06a100 100 0 0 0 19.53 24.65l.07.07c8.02 6.9 14.39 8.4 17.14 6.8 2.86-1.66 4.96-8.44 2.8-19.39a97 97 0 0 0-11.93-28.67l.24.42a99 99 0 0 0-18.32-23.65l-.05-.04c-8.64-7.68-15.65-9.4-18.5-7.75a8.3 8.3 0 0 0-3.06 5.9v.02a37 37 0 0 0 .6 12.96l-.05-.24a98 98 0 0 0 11.78 29.35z" fill="#001B3B"/></svg>