<svg viewBox="0 0 1200 1200" xmlns="http://www.w3.org/2000/svg"><path d="M1150 624.94h-136.4a8.2 8.2 0 0 0-8.2 7.92 472 472 0 0 1-15 102.33 8.2 8.2 0 0 0 8.76 10.22c2.49-.23 67.17-8.06 136.92-22.78a8.2 8.2 0 0 0 6.1-5.44 323 323 0 0 0 16.03-83.58 8.2 8.2 0 0 0-8.2-8.67zm-21.94 82.6a1694 1694 0 0 1-118.88 20.06 488 488 0 0 0 12.24-86.25h119.77a306 306 0 0 1-13.13 66.18m-926.58 37.45a8.2 8.2 0 0 0 7.92-10.27 468 468 0 0 1-14.9-101.86 8.2 8.2 0 0 0-8.2-7.92H49.92a8.24 8.24 0 0 0-8.2 8.67 322 322 0 0 0 15.94 83.35 8.2 8.2 0 0 0 6.14 5.43c64.97 13.36 134.63 22.6 137.68 22.6M58.74 641.35h119.77a487 487 0 0 0 12.14 85.73A1789 1789 0 0 1 71.82 707.3a305 305 0 0 1-13.08-65.95M315.1 927.6a8.4 8.4 0 0 0-4.6-2.49 1432 1432 0 0 1-85.26-17.48c-8.72-2.06-13.97 9.51-6.6 14.67 46.07 32.4 98.57 58.45 156.04 77.53 9.05 3 14.96-9.19 7.27-14.53a414 414 0 0 1-66.85-57.7m-48.6 5.9a1529 1529 0 0 0 38.48 7.32 441 441 0 0 0 25.54 24.84 583 583 0 0 1-64.03-32.16m850.6-188.02a1770 1770 0 0 1-131.03 20.35 8.3 8.3 0 0 0-6.8 5.43 449 449 0 0 1-60.09 114.75c-4.36 6 .94 14.4 8.3 12.85 39.84-8.11 78.7-17.81 115.45-28.88a7.6 7.6 0 0 0 3.42-2.06c33.94-33.84 60.8-71.15 79.69-110.86a8.19 8.19 0 0 0-8.95-11.58zm-80.87 109.41a1283 1283 0 0 1-91.92 23.63 469 469 0 0 0 48.75-96.99c37.03-4.5 74.25-10.07 110.77-16.82-17.15 32.01-39.84 62.3-67.6 90.18M49.94 606.22h136.4a8.2 8.2 0 0 0 8.2-7.92 468 468 0 0 1 14.91-101.86 8.22 8.22 0 0 0-8.95-10.22 1804 1804 0 0 0-136.64 22.5 8.3 8.3 0 0 0-6.14 5.44 324 324 0 0 0-15.94 83.4 8.14 8.14 0 0 0 8.16 8.66m21.9-82.4a1811 1811 0 0 1 118.82-19.78 488 488 0 0 0-12.14 85.73H58.75a306 306 0 0 1 13.08-65.95zm1015.9-168.42c22.59-124.7-.52-224.21-65.3-280.5-90.52-78.61-251.11-63.61-429.94 40.12l-3-.23-28.78-108.7a8.22 8.22 0 0 0-14.3-3.1l-97.4 119.34-168.95 29.91A8.2 8.2 0 0 0 276 166.4l49.87 45.14C150.1 281.62 6.13 427.4 6.13 615.56c0 56.9 13.36 112.17 39.61 164.34-53.2 165.42-37.78 300.14 42.6 369.98 38.68 33.6 89.82 50.1 149.4 50.1 97.5 0 217.69-44.2 342.98-129.6 328.6 8.25 613.13-192.05 613.13-454.82 0-94.13-36.7-183.98-106.12-260.16zm-45.85 152.8a1640 1640 0 0 1 86.2 15.43 305 305 0 0 1 13.13 66.14h-119.77a478 478 0 0 0-2.49-29.77 978 978 0 0 0 22.93-51.8m31.17-89.71a369 369 0 0 1 30.85 47.9 1821 1821 0 0 0-43.5-7.45 833 833 0 0 0 12.65-40.45M454.87 137.94a8 8 0 0 0 4.92-2.9L549 25.75l26.16 98.77a8.2 8.2 0 0 0 7.27 6.1c12.7 1.02 93.84 7.5 102.14 8.2-22.22 17.95-77.25 62.3-98.86 79.78a8 8 0 0 0-3 5.62l-10.17 107.3c-34.55-12.56-82.88-30.14-98.3-35.72-2.2-.8-4.6-.6-6.65.47-17.11 9.05-120 63.61-136.36 72.23 10.07-21.51 42.75-91.5 54.65-116.95a8.2 8.2 0 0 0-1.92-9.56l-84.52-76.5zm382.78 451.82h-31.12a1004 1004 0 0 0-7.88-104.34c29.96 1.36 59.63 3.19 88.78 5.44a865 865 0 0 1-49.78 98.9m68.9-149.02c-35.85-3-75-5.49-116.2-7.22-7.58-39.66-17.62-76.36-29.8-109.41 36.65 3.47 72.75 8.1 108.38 13.97a403 403 0 0 1 48.14 68.72 629 629 0 0 1-10.5 33.94zM706.4 124.14l-25.74-2.06c83.86-23.44 153.52-15.29 198.74 24.04 25.18 21.85 41.86 52.22 49.74 90.33-74.86-38.25-160.64-62.9-250.18-72l31.92-25.78c5.77-4.64 2.86-13.97-4.5-14.53zm-129.56 226.4a8.22 8.22 0 0 0 10.97-6.94l2.58-27c39.42-.23 78.04.9 113.06 3.1 14.06 32.53 25.59 70.12 34.22 111.93-81.05-2.3-189.8-2.43-275.44.15 8.53-41.25 19.82-78.38 33.65-110.67zm39.75-135.74c19.69 6.51 40.03 24.6 58.45 51.84a1713 1713 0 0 0-79.73-1.54l3.42-35.86zM317.25 394.43l119.77-63.47c-11.16 31.4-20.35 65.81-27.38 102.75-47.95 2.1-96.75 5.39-144.94 10.03a407 407 0 0 1 57.8-95.3l-16.5 35.3c-3.33 7.08 4.31 14.4 11.25 10.69m22.22-170.63 15.75 14.25c-49.78 18.23-95.67 42-136.55 70.69-7.31 5.1-2.2 16.78 6.6 14.67a1437 1437 0 0 1 85.27-17.49 8 8 0 0 0 4.6-2.48 421 421 0 0 1 49.3-44.86l-29.05 62.16q-4.92.75-9.85 1.6a8.4 8.4 0 0 0-4.82 2.66c-32.35 36.61-58.13 78.7-76.55 125.16a8.22 8.22 0 0 0 8.44 11.2c54.6-5.53 110.02-9.28 164.16-11.57a8.2 8.2 0 0 0 7.73-6.7c8.3-45.38 19.83-87 34.31-123.72l13.17-6.98 8.44 3.1C465.2 351.24 453 392.63 444.1 438.71a8.2 8.2 0 0 0 8.07 9.75h.28c96.23-3.14 216.52-2.67 295.03-.14a8.24 8.24 0 0 0 8.34-9.75c-9.47-49.07-22.69-92.86-39.37-130.13a8.2 8.2 0 0 0-6.94-4.82c-36.28-2.4-76.13-3.66-117.56-3.43l1.78-18.7c32.1-.14 64.73.66 96.19 2.3h.42a8.22 8.22 0 0 0 7.08-12.38c-20.11-33.98-42.75-57.28-66.24-68.39l29.44-23.72c97.88 7.69 191.68 34.46 271.78 77.4a263 263 0 0 1 1.74 22.4 618 618 0 0 0-108.8-47.86c-8.91-2.95-15 9.14-7.27 14.53a415 415 0 0 1 66.8 57.75 8.4 8.4 0 0 0 4.6 2.49c14.85 2.53 29.66 5.43 44 8.39-1.5 22.12-5.1 45.47-10.73 69.75a421 421 0 0 0-43.5-59.07 8.5 8.5 0 0 0-4.78-2.67 1593 1593 0 0 0-125.63-15.8 8.24 8.24 0 0 0-8.34 11.2c14.67 36.9 26.44 79 34.87 125.12a8.2 8.2 0 0 0 7.74 6.7 2909 2909 0 0 1 117.8 7.08 606 606 0 0 1-6.94 18.19 2791 2791 0 0 0-104.44-6.33 8.22 8.22 0 0 0-8.48 9.33 976 976 0 0 1 9.18 120.14c.1 4.5 3.7 8.06 8.2 8.06h29.44a935 935 0 0 1-11.71 18.75h-17.72a8.2 8.2 0 0 0-8.2 8.06c-.2 10.31-.52 21.1-1.04 32.06a1051 1051 0 0 1-20.44 28.04 1001 1001 0 0 0 2.77-59.82 8.2 8.2 0 0 0-8.2-8.34l-326.68.05c-4.6 0-8.3 3.75-8.2 8.34.7 42.6 3.98 84.14 9.74 123.42a8.1 8.1 0 0 0 7.83 6.98 5048 5048 0 0 0 263.81 1.32 866 866 0 0 1-17.39 19.08c-74.25 1.26-164.58 1.03-240-1.46a8.22 8.22 0 0 0-8.34 9.75c9.47 49.13 22.73 92.96 39.37 130.26a8.2 8.2 0 0 0 6.94 4.83c12.05.8 23.58 1.4 35.58 1.88a857 857 0 0 1-45.52 29.39 354 354 0 0 1-4.97-9.52 8.3 8.3 0 0 0-6.7-4.5c-34.6-2.58-68.63-6.28-97.64-10.22-8.16-1.12-12.66 9.19-6.38 14.44a386 386 0 0 0 58.93 40.45 565 565 0 0 1-62.77 25.78C178.81 952.23 22.53 807.1 22.53 615.53c0-184.04 144.42-325.4 316.92-391.75zm-8.96 41.67a438 438 0 0 0-25.5 24.8 1427 1427 0 0 0-38.53 7.31 592 592 0 0 1 64.03-32.1m602.86 32.1a1638 1638 0 0 0-38.43-7.3 439 439 0 0 0-25.5-24.8 582 582 0 0 1 63.93 32.1M724.45 748.25c-79.4 1.97-181.36 2.1-271.03-.75A937 937 0 0 1 445 641.32h310.03a966 966 0 0 1-4.78 75.75 1129 1129 0 0 1-25.78 31.17zM547.92 913.7c-17.76-.52-36.6-1.4-51.42-2.34-14.1-32.58-25.6-70.22-34.26-112.08 65.76 2.01 147.24 2.3 214.36 1.4-40.93 42.28-84.14 80.25-128.68 113.02m-106.17 66.66a368 368 0 0 1-42.65-25.83c20.95 2.43 40.31 4.36 63.89 6.18a384 384 0 0 0 3.33 6.29q-12.31 7.03-24.56 13.35zM84.15 841.7c61.64 82.35 152.9 144.05 250.77 181.36-82.54 22.4-151.55 13.92-196.03-24.75-38.53-33.47-57.28-87.33-54.75-156.61m14.95 295.78c-72.75-63.24-87.9-185.53-42.42-337.4a397 397 0 0 0 12.46 20.2c-7.64 84.37 12.7 150.19 59.02 190.45 291.56 253.4 1055-622.55 762.05-877.03-56.44-49.03-145.87-54.38-252-15.05l-16.31-1.31c163.78-89.3 308.29-100.88 389.8-30.05 150.15 130.45 48.43 504.14-264.41 822.74-116.91 116.81-284.06 238.55-446.3 267.56-84.5 15.1-154.3 1.22-201.88-40.12zM969 653.27a435 435 0 0 1-14.67 80.8 2291 2291 0 0 1-40.41 3.94A1304 1304 0 0 0 969 653.26M872.95 792.9c20.58-1.46 41.44-3.15 62.16-5.11a406 406 0 0 1-66.24 105.19 1533 1533 0 0 1-94.12 12.56 1411 1411 0 0 0 98.2-112.64m-269.1 261.24a1238 1238 0 0 0 114.74-93.9c-10.6 19.32-22.08 36.05-34.22 49.7-5.34 6 .33 15.5 8.25 13.4 51.9-13.88 99.85-38.9 142.55-74.44 6.28-5.25 1.83-15.56-6.37-14.44-31.13 4.22-62.16 7.5-93.24 9.94 7.08-6.75 14.16-13.64 21.14-20.63a1558 1558 0 0 0 117.7-15.04 8.2 8.2 0 0 0 4.79-2.67c32.3-36.52 57.98-78.47 76.35-124.74a8.22 8.22 0 0 0-8.43-11.2 2394 2394 0 0 1-60.75 5.38q7.6-10.05 14.86-19.97c20.34-1.68 40.54-3.56 60.04-5.71a8.2 8.2 0 0 0 7.17-5.86 451 451 0 0 0 18.15-110.53c.09-2.25-.7-4.5-2.63-6.29a1118 1118 0 0 0 20.86-38.85q.27 4.98.47 9.98a8.2 8.2 0 0 0 8.2 7.92h136.4a8.24 8.24 0 0 0 8.2-8.67A321 321 0 0 0 1142.1 514a8.2 8.2 0 0 0-6.23-5.49 1628 1628 0 0 0-87.9-15.93q3.46-8.85 6.7-17.86a1806 1806 0 0 1 62.35 10.87 8.2 8.2 0 0 0 8.96-11.58c-12.47-26.15-28.55-51.46-47.77-75.37a648 648 0 0 0 5.39-23.02c61.36 71.07 93.7 153.71 93.7 239.9.14 245.81-262.03 437.06-573.47 438.61zm109.5-54.38a331 331 0 0 0 23.62-39.05c24.32-1.92 43.92-3.89 63.98-6.23a352 352 0 0 1-87.6 45.28M82.62 485.93a1905 1905 0 0 1 131.06-20.2 8.2 8.2 0 0 0 6.75-5.44 449 449 0 0 1 60.28-115.22c4.4-6.05-.94-14.34-8.25-12.84-39.84 8.1-78.7 17.8-115.45 28.87a7.6 7.6 0 0 0-3.42 2.06c-34.08 33.99-60.94 71.4-79.88 111.23-2.9 5.96 2.3 12.8 8.91 11.53zm81.1-109.73a1283 1283 0 0 1 91.92-23.62 464 464 0 0 0-48.9 97.5 1905 1905 0 0 0-110.8 16.73c17.15-32.16 39.89-62.58 67.78-90.61M974.7 907.62a1432 1432 0 0 1-85.21 17.48 8 8 0 0 0-4.6 2.49 418 418 0 0 1-66.84 57.75c-7.69 5.3-1.78 17.53 7.26 14.53 57.43-19.08 109.92-45.14 156.05-77.53 7.36-5.2 2.07-16.83-6.65-14.72zm-105.28 58.03a455 455 0 0 0 25.55-24.8 1534 1534 0 0 0 38.53-7.3 597 597 0 0 1-64.08 32.1m-588.66-79.64a448 448 0 0 1-60.28-115.22 8.2 8.2 0 0 0-6.75-5.44c-43.97-5.3-86.95-11.72-131.06-20.2a8.21 8.21 0 0 0-8.95 11.58c18.94 39.8 45.8 77.25 79.88 111.23a9 9 0 0 0 3.42 2.06 1323 1323 0 0 0 115.45 28.88c7.31 1.45 12.65-6.85 8.3-12.9zm-117.05-31.12c-27.84-28.04-50.62-58.41-67.78-90.57 34.22 6.24 71.4 11.9 110.81 16.74a467 467 0 0 0 48.9 97.45 1272 1272 0 0 1-91.93-23.62m74.58-105.56c57 6.18 113.53 10.26 172.08 12.89a8.18 8.18 0 0 0 8.49-9.33 993 993 0 0 1-9.19-119.95 8.2 8.2 0 0 0-8.2-8.06h-180a8.2 8.2 0 0 0-8.2 8.53c1.45 37.6 7.5 74.62 18.04 110.1a8.1 8.1 0 0 0 6.98 5.82m155.16-108a999 999 0 0 0 7.83 104.1 2672 2672 0 0 1-155.76-11.8 432 432 0 0 1-15.42-92.3zM252.7 769.67a8.22 8.22 0 0 0-8.48 11.15c18.37 46.4 44.1 88.55 76.5 125.21a8.5 8.5 0 0 0 4.78 2.67c65.16 10.88 123.98 15.8 126.32 15.8a8.23 8.23 0 0 0 7.64-11.25c-14.77-37.12-26.53-79.27-34.92-125.29a8.2 8.2 0 0 0-7.74-6.7 2786 2786 0 0 1-164.1-11.58zm186.8 137.29a1574 1574 0 0 1-108.39-13.97 405 405 0 0 1-66.42-105.66c47.67 4.59 96.9 7.92 144.94 10.03 7.55 39.6 17.58 76.4 29.86 109.59zm-2.87-300.74h326.76c4.6 0 8.3-3.75 8.2-8.35-.7-42.75-3.98-84.33-9.74-123.56a8.14 8.14 0 0 0-7.88-6.98c-90.51-2.9-203.2-3.24-307.97.14a8.3 8.3 0 0 0-7.87 6.98c-5.77 39.28-9.05 80.81-9.75 123.42a8.3 8.3 0 0 0 8.25 8.35m16.78-122.63c98.3-3.1 211.13-2.72 293.16-.15A938 938 0 0 1 755 589.75l-310.03.05a938 938 0 0 1 8.44-106.22zm-222.1 3.98a450 450 0 0 0-18.04 110.11 8.23 8.23 0 0 0 8.2 8.53h180a8.2 8.2 0 0 0 8.2-8.06 975 975 0 0 1 9.2-119.95 8.2 8.2 0 0 0-8.5-9.33c-58.17 2.63-114.46 6.66-172.07 12.94a8 8 0 0 0-6.99 5.76m169.97-1.88a999 999 0 0 0-7.82 104.11H230.09a432 432 0 0 1 15.42-92.3 2627 2627 0 0 1 155.76-11.8zm428.58-189.05c7.65 0 11.16-9.6 5.25-14.48-42.6-35.48-90.56-60.52-142.5-74.39-7.82-2.11-13.64 7.31-8.25 13.4 14.44 16.18 27.9 36.61 40.04 60.7a8.3 8.3 0 0 0 6.7 4.5c53.3 4.04 98.76 10.27 98.76 10.27M713.32 231.3a354 354 0 0 1 87.61 45.28c-21-2.44-40.54-4.4-63.98-6.23a321 321 0 0 0-23.63-39.05" fill="#162354"/></svg>
